<svg width="415" height="398" viewBox="0 0 415 398" fill="none" xmlns="http://www.w3.org/2000/svg">
<g filter="url(#filter0_d_1_529)">
<ellipse opacity="0.27" cx="207.228" cy="194.897" rx="203.228" ry="194.897" fill="#A8A8A8"/>
<mask id="mask0_1_529" style="mask-type:luminance" maskUnits="userSpaceOnUse" x="4" y="0" width="407" height="390">
<ellipse cx="207.228" cy="194.897" rx="203.228" ry="194.897" fill="white"/>
</mask>
<g mask="url(#mask0_1_529)">
<path d="M72.7951 408.812L94.9056 319.49C94.9056 319.49 222.727 262.64 370.832 288.228C370.832 288.228 445.926 756.406 445.926 779.396C445.926 779.396 259.065 845.93 54.739 768.89C39.0217 743.989 115.086 679.01 72.7951 408.812Z" fill="#FFC562"/>
<mask id="mask1_1_529" style="mask-type:luminance" maskUnits="userSpaceOnUse" x="52" y="281" width="394" height="526">
<path fill-rule="evenodd" clip-rule="evenodd" d="M72.7951 408.812L94.9056 319.49C94.9056 319.49 222.727 262.64 370.832 288.228C370.832 288.228 445.926 756.406 445.926 779.396C445.926 779.396 259.065 845.93 54.739 768.89C39.0217 743.989 115.086 679.01 72.7951 408.812Z" fill="white"/>
</mask>
<g mask="url(#mask1_1_529)">
<path d="M255.822 452.049C213.4 342.202 335.564 335.838 272.472 448.266Z" fill="#F08059"/>
<path d="M267.125 452.12C400.37 386.076 378.502 499.653 267.414 466.908Z" fill="#F08059"/>
<path d="M262.046 449.876C326.268 325.501 397.187 401.312 274.024 457.657Z" fill="#F08059"/>
<path d="M252.099 457.367C127.884 426.394 229.73 341.583 263.668 444.235Z" fill="#F08059"/>
<ellipse cx="225.549" cy="305.598" rx="91.7283" ry="87.0542" fill="#BB393C"/>
<ellipse cx="225.549" cy="290.056" rx="83.4426" ry="87.0542" fill="#FF9763"/>
<path d="M386.812 383.671C345.288 371.227 426.597 536.975 326.591 555.52C226.584 574.066 382.919 708.637 382.919 708.637L326.203 812.248L445.926 571.577L438.716 494.424" fill="#D89D35"/>
</g>
<path d="M242.7 287.468C320.511 295.122 358.419 270.248 358.419 270.248C292.579 228.154 362.409 195.627 320.511 157.36C278.613 119.092 313.885 60.5226 242.7 51.1679L233.722 77.955C258.661 150.663 217.761 229.589 217.761 229.589L242.7 287.468Z" fill="#4B4D5C"/>
<path d="M156.296 309.316L172.87 192.757L257.913 206.629C259.174 231.846 262.601 270.719 267.889 301.222" fill="#FF9763"/>
<mask id="mask2_1_529" style="mask-type:luminance" maskUnits="userSpaceOnUse" x="156" y="192" width="112" height="118">
<path fill-rule="evenodd" clip-rule="evenodd" d="M156.296 309.316L172.87 192.757L257.913 206.629C259.174 231.846 262.601 270.719 267.889 301.222" fill="white"/>
</mask>
<g mask="url(#mask2_1_529)">
<path d="M157.363 233.959C209.78 296.078 255.316 270.336 267.889 301.221C280.462 332.107 267.889 206.628 267.889 206.628L229.648 201.7L164.52 223.664" fill="#E84B23"/>
</g>
<path d="M274.124 152.576C310.535 131.051 317.518 179.124 267.889 206.629Z" fill="#FF9763"/>
<path d="M233.723 77.9542C233.723 77.9542 163.891 78.9118 191.821 142.053C211.864 187.36 182.608 219.368 185.85 253.627C191.248 256.659 197.626 257.97 205.291 256.854C272.377 247.092 279.363 192.854 277.24 130.07C234.314 120.964 233.723 77.9542 233.723 77.9542Z" fill="#FF9763"/>
<mask id="mask3_1_529" style="mask-type:luminance" maskUnits="userSpaceOnUse" x="185" y="77" width="93" height="181">
<path fill-rule="evenodd" clip-rule="evenodd" d="M233.723 77.954C233.723 77.954 163.89 78.9116 191.821 142.052C211.864 187.36 182.608 219.367 185.85 253.627C191.247 256.659 197.626 257.97 205.291 256.854C272.377 247.092 279.363 192.854 277.24 130.07C234.313 120.964 233.723 77.954 233.723 77.954Z" fill="white"/>
</mask>
<g mask="url(#mask3_1_529)">
<ellipse opacity="0.27" cx="24.0374" cy="17.5565" rx="24.0374" ry="17.5565" transform="matrix(0.999111 -0.0421506 0.0458237 0.99895 242.983 171.625)" fill="#E84B23"/>
<path d="M178.355 136.485V136.485C183.073 136.611 186.792 140.381 186.66 144.906L186.258 158.744C186.127 163.269 182.196 166.835 177.477 166.709V166.709C172.759 166.583 169.04 162.812 169.172 158.287L169.574 144.45C169.705 139.925 173.637 136.359 178.355 136.485L178.355 136.485Z" fill="#190000"/>
<path d="M244.107 135.676V135.676C246.373 135.737 248.521 136.658 250.079 138.237C251.636 139.816 252.476 141.924 252.413 144.097L252.011 157.935C251.88 162.46 247.948 166.026 243.23 165.9V165.9C238.511 165.774 234.793 162.003 234.924 157.479L235.326 143.641C235.457 139.116 239.389 135.55 244.107 135.676L244.107 135.676Z" fill="#190000"/>
<path d="M176.784 117.118C159.207 121.529 163.744 130.771 174.919 128.701C186.095 126.63 188.267 114.235 176.784 117.118Z" fill="#190000"/>
<path d="M244.17 115.71C261.463 121.052 257.738 129.374 246.701 126.71C235.663 124.047 232.871 112.219 244.17 115.71Z" fill="#190000"/>
<path d="M220.354 171.571C220.305 177.113 215.377 174.875 209.274 174.825C203.17 174.775 198.203 176.931 198.253 171.39C198.302 165.848 203.29 161.396 209.393 161.446C215.496 161.497 220.404 166.03 220.354 171.571Z" fill="#E84B23"/>
<path d="M185.571 202.428C195.987 241.811 234.065 222.745 233.115 197.933C233.044 196.65 232.144 195.546 230.862 195.17C225.454 193.52 209.841 190.305 187.534 198.786C186.025 199.362 185.188 200.915 185.571 202.428Z" fill="#C1525F"/>
<mask id="mask4_1_529" style="mask-type:luminance" maskUnits="userSpaceOnUse" x="185" y="193" width="49" height="33">
<path fill-rule="evenodd" clip-rule="evenodd" d="M185.57 202.429C195.987 241.812 234.065 222.745 233.115 197.933C233.044 196.65 232.144 195.546 230.862 195.17C225.454 193.52 209.841 190.305 187.534 198.786C186.025 199.362 185.188 200.915 185.57 202.429Z" fill="white"/>
</mask>
<g mask="url(#mask4_1_529)">
<ellipse cx="21.1105" cy="18.2989" rx="21.1105" ry="18.2989" transform="matrix(0.92727 -0.374393 0.401981 0.915648 189.842 213.731)" fill="#993443"/>
<path d="M192.434 195.556C192.678 198.188 193.268 201.742 194.043 202.334C198.817 205.976 220.052 202.427 222.77 199.895C223.527 199.19 222.873 190.693 222.873 190.693L195.56 193.857" fill="#F0F3FC"/>
</g>
</g>
<path d="M239.394 61.0381L242.703 51.1684C207.787 21.5112 128.974 44.472 120 113.352C111.02 182.234 46.1791 155.445 69.1241 202.323C92.0636 249.201 40.1182 272.288 40.1182 272.288C40.1182 272.288 163.891 307.559 209.781 296.079C193.437 280.947 187.131 267.112 185.85 253.627C182.607 219.368 211.864 187.36 191.821 142.053C163.89 78.9118 233.723 77.9542 233.723 77.9542C233.723 77.9542 234.313 120.964 277.24 130.07C278.844 130.411 280.376 130.81 282.103 131.05" fill="#4B4D5C"/>
<path d="M128.347 168.117C123.184 171.457 119.707 176.204 117.427 181.702C115.126 187.251 114.576 193.412 114.754 199.335C114.862 202.916 115.239 206.484 115.617 210.046C115.655 211.222 116.14 212.344 116.98 213.201C117.857 214.031 119.037 214.5 120.27 214.508C122.579 214.409 125.187 212.533 124.922 210.046C124.296 204.149 123.666 198.194 124.277 192.271C124.312 191.928 124.357 191.586 124.395 191.243C124.456 190.703 124.349 191.575 124.348 191.574C124.355 191.401 124.383 191.229 124.429 191.062C124.532 190.44 124.651 189.821 124.787 189.206C125.045 188.04 125.371 186.888 125.761 185.755C125.942 185.232 126.137 184.715 126.347 184.201C126.416 184.032 126.499 183.863 126.561 183.691C126.57 183.666 126.154 184.568 126.374 184.125C126.518 183.836 126.649 183.542 126.794 183.253C127.309 182.228 127.893 181.236 128.542 180.283C128.749 179.98 128.963 179.682 129.184 179.389C129.791 178.582 128.741 179.886 129.227 179.323C129.646 178.837 130.073 178.359 130.529 177.904C131.017 177.417 131.529 176.954 132.065 176.515C132.173 176.427 132.282 176.342 132.39 176.254C132.861 175.872 132.289 176.354 132.116 176.451C132.437 176.271 132.735 176.022 133.043 175.822C135.058 174.52 136.135 171.833 134.713 169.718C133.419 167.793 130.504 166.721 128.347 168.117L128.347 168.117Z" fill="#373947"/>
<path d="M378.035 374.328C384.713 453.587 393.832 560.134 395.281 568.475C397.61 581.873 317.277 718.976 317.277 718.976C327.755 760.516 379.119 795.83 379.119 795.83C379.119 795.83 503.556 613.135 507.049 566.242C510.542 519.348 456.386 258.785 365.575 288.931" fill="#FFC562"/>
<path d="M97.2652 319.49C10.1737 328.679 10.4393 434.15 19.7532 630.657C19.7532 630.657 8.08983 684.475 93.2725 716.002C124.381 716.002 114.698 625.417 114.698 625.417C114.698 625.417 109.131 585.222 105.511 581.873C102.667 579.24 110.842 489.041 114.474 450.528" fill="#FFC562"/>
<mask id="mask5_1_529" style="mask-type:luminance" maskUnits="userSpaceOnUse" x="15" y="319" width="102" height="398">
<path fill-rule="evenodd" clip-rule="evenodd" d="M97.2651 319.49C10.1736 328.679 10.4391 434.15 19.7531 630.657C19.7531 630.657 8.0897 684.475 93.2724 716.002C124.38 716.002 114.698 625.417 114.698 625.417C114.698 625.417 109.131 585.222 105.511 581.873C102.666 579.24 110.842 489.041 114.474 450.528" fill="white"/>
</mask>
<g mask="url(#mask5_1_529)">
<path d="M-38.1631 336.527C61.4017 324.307 -57.5667 446.687 46.2246 475.025L64.9596 463.514C-45.756 456 85.9012 309.255 -35.1421 329.11L-38.1631 336.527Z" fill="#97CC64"/>
<path d="M-31.9125 323.838C58.5419 402.557 -46.8034 462.219 -44.8687 334.558Z" fill="#F08059"/>
<path d="M-34.588 313.152C51.8986 195.631 87.0969 306.085 -27.2219 326.147Z" fill="#F08059"/>
<path d="M-31.1658 317.473C93.9504 290.036 44.349 410.326 -35.1187 334.241Z" fill="#F08059"/>
<path d="M29.4829 417.681C88.3342 417.454 83.7558 351.815 83.7558 351.815C83.7558 351.815 10.5301 372.747 29.4829 417.681Z" fill="#97CC64"/>
</g>
</g>
</g>
<defs>
<filter id="filter0_d_1_529" x="0" y="0" width="414.457" height="397.795" filterUnits="userSpaceOnUse" color-interpolation-filters="sRGB">
<feFlood flood-opacity="0" result="BackgroundImageFix"/>
<feColorMatrix in="SourceAlpha" type="matrix" values="0 0 0 0 0 0 0 0 0 0 0 0 0 0 0 0 0 0 127 0" result="hardAlpha"/>
<feOffset dy="4"/>
<feGaussianBlur stdDeviation="2"/>
<feComposite in2="hardAlpha" operator="out"/>
<feColorMatrix type="matrix" values="0 0 0 0 0 0 0 0 0 0 0 0 0 0 0 0 0 0 0.25 0"/>
<feBlend mode="normal" in2="BackgroundImageFix" result="effect1_dropShadow_1_529"/>
<feBlend mode="normal" in="SourceGraphic" in2="effect1_dropShadow_1_529" result="shape"/>
</filter>
</defs>
</svg>
