<svg width="442" height="424" viewBox="0 0 442 424" fill="none" xmlns="http://www.w3.org/2000/svg">
<ellipse cx="220.546" cy="207.67" rx="216.546" ry="207.67" fill="#E1E1E1"/>
<g filter="url(#filter0_d_2_722)">
<mask id="mask0_2_722" style="mask-type:luminance" maskUnits="userSpaceOnUse" x="4" y="0" width="434" height="416">
<ellipse cx="220.546" cy="207.67" rx="216.546" ry="207.67" fill="white"/>
</mask>
<g mask="url(#mask0_2_722)">
<path d="M159.488 376.222C159.488 376.222 -83.859 457.788 -104.599 467.984C-125.339 478.18 -271.351 516.12 -282.758 517.394C-294.165 518.669 -376.982 484.552 -394.611 478.18C-394.611 478.18 -407.054 494.832 -361.427 511.358C-361.427 511.358 -452.682 513.949 -455.793 511.358C-458.904 508.767 -482.063 541.478 -378.71 535.106L-443.349 549.55C-443.349 549.55 -467.2 580.987 -361.427 561.02C-280.539 545.751 -399.506 588.109 -372.252 606.266L-323.34 580.361L145.121 516.468L159.488 376.222Z" fill="#FF9763"/>
<path d="M90.8987 395.46C90.8987 395.46 46.9002 484.353 44.5476 546.113C44.5476 546.113 187.355 526.39 255.581 489.335C323.806 452.279 408.5 295.409 90.8987 395.46Z" fill="#FFC562"/>
<path d="M208.561 221.08L191.515 351.385L293.806 400.35L284.884 207.809L208.561 221.08V221.08Z" fill="#FF9763"/>
<mask id="mask1_2_722" style="mask-type:luminance" maskUnits="userSpaceOnUse" x="191" y="207" width="103" height="194">
<path fill-rule="evenodd" clip-rule="evenodd" d="M208.562 221.08L191.515 351.385L293.806 400.35L284.884 207.809L208.562 221.08V221.08Z" fill="white"/>
</mask>
<g mask="url(#mask1_2_722)">
<path d="M262.123 270.071C274.052 301.15 262.307 327.492 285.788 332.184C340.376 343.093 351.834 262.703 351.834 262.703L275.309 268.962" fill="#E84B23"/>
</g>
<path d="M264.723 274.727L319.191 261.688C336.821 257.467 351.879 245.102 356.557 228.264C361.057 212.587 356.61 195.795 344.854 184.077L266.677 105.711L199.586 191.981L229.827 242.38" fill="#FF9763"/>
<path d="M292.525 154.067V154.067C295.359 151.92 299.471 152.382 301.71 155.1L308.557 163.411C310.795 166.129 310.313 170.073 307.479 172.22V172.22C304.645 174.367 300.533 173.904 298.294 171.187L291.447 162.875C289.208 160.157 289.691 156.214 292.525 154.067L292.525 154.067Z" fill="#190000"/>
<path d="M283.53 134.145C267.487 145.228 269.113 154.004 279.613 147.703C290.113 141.401 294.012 126.903 283.53 134.145Z" fill="#190000"/>
<path d="M311.862 153.135C340.309 150.434 349.038 174.798 332.204 180.192Z" fill="#FF9763"/>
<ellipse cx="19.0379" cy="14.8772" rx="19.0379" ry="14.8772" transform="matrix(0.927019 -0.375013 0.402631 0.915362 252.163 174.999)" fill="#E84B23"/>
<path d="M302.359 186.643C314.255 192.308 321.365 184.239 321.365 184.239" stroke="#E84B23" stroke-width="3.17007" stroke-linecap="round" stroke-linejoin="round"/>
<path d="M242.21 213.965C238.149 211.844 233.118 212.524 229.826 215.638C226.524 218.89 226.121 223.942 228.867 227.638C230.376 229.647 232.545 231.361 235.172 231.751C236.16 231.977 237.199 231.846 238.094 231.385C238.962 230.898 239.593 230.1 239.849 229.167C240.104 228.234 239.962 227.242 239.454 226.409C238.965 225.581 238.148 224.978 237.188 224.738C236.698 224.665 236.219 224.534 235.762 224.348L236.668 224.715C236.219 224.52 235.794 224.278 235.4 223.993L236.167 224.561C235.699 224.207 235.278 223.799 234.912 223.346L235.505 224.082C235.147 223.622 234.846 223.122 234.609 222.595L234.991 223.463C234.765 222.935 234.608 222.382 234.523 221.816L234.659 222.783C234.6 222.313 234.597 221.839 234.649 221.369L234.514 222.336C234.579 221.867 234.704 221.407 234.888 220.968L234.506 221.836C234.695 221.418 234.934 221.022 235.218 220.657L234.625 221.393C234.947 220.999 235.316 220.643 235.724 220.33L234.956 220.899C235.45 220.536 235.989 220.234 236.562 220L235.656 220.366C236.234 220.141 236.838 219.985 237.456 219.902L236.448 220.031C237.014 219.965 237.588 219.965 238.155 220.031L237.146 219.902C237.663 219.973 238.167 220.106 238.649 220.298L237.743 219.931C237.961 220.025 238.175 220.13 238.381 220.246C239.551 220.901 240.997 220.909 242.174 220.265C243.351 219.621 244.08 218.424 244.088 217.125C244.095 215.826 243.379 214.621 242.209 213.965L242.21 213.965Z" fill="#190000"/>
<path d="M250.202 210.863C275.336 194.51 224.173 158.646 271.424 136.941C318.674 115.236 343.52 -6.75119 287.13 49.572C230.74 105.895 227.179 -6.69375 209.996 56.4748C192.812 119.643 199.61 148.775 155.424 171.223C111.238 193.671 172.14 271.52 216.012 270.42C259.884 269.321 250.202 210.863 250.202 210.863Z" fill="#3A3530"/>
<path d="M264.69 197.972C182.013 194.912 192.124 260.871 264.33 249.491Z" fill="#FF9763"/>
<path d="M-75.7582 586.838C9.98526 664.699 159.224 747.37 199.586 741.579C199.586 741.579 330.897 432.919 291.353 347.4L203.893 287.456C203.893 287.456 47.0777 396.567 -75.7582 586.838Z" fill="#FFC562"/>
<mask id="mask2_2_722" style="mask-type:luminance" maskUnits="userSpaceOnUse" x="-76" y="287" width="375" height="455">
<path fill-rule="evenodd" clip-rule="evenodd" d="M-75.7581 586.838C9.98539 664.699 159.224 747.369 199.586 741.579C199.586 741.579 330.897 432.919 291.353 347.4L203.893 287.456C203.893 287.456 47.0778 396.567 -75.7581 586.838Z" fill="white"/>
</mask>
<g mask="url(#mask2_2_722)">
<path d="M179.117 293.087C187.513 299.624 298.777 387.669 298.777 387.669L319.543 325.827L213.73 283.993" fill="#F0F3FC"/>
</g>
<path d="M69.7715 334.066C69.7715 334.066 -173.575 415.631 -194.315 425.827C-215.055 436.023 -361.067 473.963 -372.474 475.238C-383.882 476.512 -466.698 442.395 -484.327 436.023C-484.327 436.023 -496.771 452.675 -451.143 469.201C-451.143 469.201 -542.399 471.792 -545.51 469.201C-548.621 466.61 -571.78 499.321 -468.427 492.949L-533.066 507.393C-533.066 507.393 -556.916 538.83 -451.143 518.863C-370.255 503.594 -489.222 545.953 -461.969 564.109L-413.057 538.204L55.4046 474.312L69.7715 334.066Z" fill="#FF9763"/>
<mask id="mask3_2_722" style="mask-type:luminance" maskUnits="userSpaceOnUse" x="-550" y="334" width="620" height="231">
<path fill-rule="evenodd" clip-rule="evenodd" d="M69.772 334.066C69.772 334.066 -173.575 415.631 -194.315 425.827C-215.055 436.023 -361.067 473.963 -372.474 475.238C-383.881 476.512 -466.698 442.395 -484.327 436.023C-484.327 436.023 -496.771 452.675 -451.143 469.201C-451.143 469.201 -542.398 471.792 -545.509 469.201C-548.62 466.61 -571.78 499.321 -468.426 492.949L-533.065 507.393C-533.065 507.393 -556.916 538.83 -451.143 518.863C-370.255 503.594 -489.222 545.953 -461.969 564.109L-413.056 538.204L55.4051 474.312L69.772 334.066Z" fill="white"/>
</mask>
<g mask="url(#mask3_2_722)">
<path d="M27.6107 348.764C-0.823139 304.943 -72.4362 497.109 -90.4545 505.695C-108.473 514.282 12.9118 516.1 12.9118 516.1L50.2317 339.013" fill="#E84B23"/>
</g>
<path d="M1.18224 353.303C1.18224 353.303 -42.8163 442.196 -45.1689 503.956C-45.1689 503.956 97.6388 484.233 165.864 447.178C234.09 410.123 318.783 253.253 1.18224 353.303Z" fill="#FFC562"/>
<mask id="mask4_2_722" style="mask-type:luminance" maskUnits="userSpaceOnUse" x="-46" y="320" width="276" height="184">
<path fill-rule="evenodd" clip-rule="evenodd" d="M1.18248 353.304C1.18248 353.304 -42.8161 442.197 -45.1687 503.956C-45.1687 503.956 97.6391 484.234 165.864 447.178C234.09 410.123 318.784 253.253 1.18248 353.304Z" fill="white"/>
</mask>
<g mask="url(#mask4_2_722)">
<path d="M60.7966 305.056C15.2776 375.992 15.0528 537.872 15.0528 537.872L-105.818 501.726L-45.1689 287.457" fill="#F0F3FC"/>
</g>
<path d="M232.418 107.47C238.348 108.114 244.293 105.689 249.068 102.495C251.577 100.817 253.92 98.9187 256.268 97.0419C256.774 96.6374 257.282 96.2349 257.791 95.8342C258.045 95.6344 258.301 95.4358 258.558 95.2384C258.67 95.1521 259.753 94.3415 259.083 94.8337C260.214 94.003 261.377 93.2156 262.581 92.4866C264.389 91.4729 264.999 89.2453 263.942 87.5111C262.884 85.7768 260.562 85.1928 258.753 86.2065C256.28 87.7548 253.912 89.4538 251.666 91.2932C250.608 92.1325 249.56 92.9828 248.498 93.8173C247.946 94.2511 247.39 94.6796 246.83 95.1027C247.348 94.7112 246.738 95.1691 246.553 95.302C246.289 95.4912 246.024 95.6782 245.758 95.8629C244.723 96.5807 243.65 97.2458 242.542 97.8552C241.939 98.1845 241.325 98.4936 240.7 98.7823C240.602 98.8275 239.691 99.2301 240.136 99.0398C240.569 98.8543 239.513 99.2712 239.409 99.3077C238.817 99.5153 238.216 99.7002 237.607 99.8558C237.025 100.091 236.403 100.219 235.772 100.233C236.266 100.176 236.293 100.172 235.853 100.221L235.543 100.249C235.233 100.274 234.922 100.291 234.61 100.298C233.878 100.313 233.146 100.279 232.418 100.196C230.44 99.9819 228.542 102.022 228.627 103.833C228.727 105.987 230.299 107.24 232.418 107.47L232.418 107.47Z" fill="#190000"/>
<path d="M171.417 197.972C171.022 201.743 171.417 205.551 172.579 209.173C172.858 210.08 173.479 210.854 174.321 211.346C175.653 212.093 177.324 211.992 178.547 211.09C179.77 210.188 180.302 208.666 179.892 207.239C179.463 205.894 179.147 204.518 178.947 203.125L179.082 204.092C178.805 202.062 178.777 200.008 179.001 197.972C179.001 197.008 178.602 196.083 177.89 195.401C177.179 194.719 176.215 194.335 175.209 194.335C174.203 194.335 173.239 194.719 172.528 195.401C171.861 196.11 171.469 197.018 171.417 197.972Z" fill="#190000"/>
<path d="M239.296 212.718C235.997 213.5 233.339 215.839 232.243 218.923C231.174 222.152 231.98 225.682 234.359 228.186C235.443 229.226 237.074 229.537 238.491 228.974C239.908 228.411 240.832 227.085 240.832 225.614C240.79 224.658 240.396 223.747 239.721 223.043C239.656 222.972 239.592 222.899 239.531 222.824L240.124 223.56C239.792 223.148 239.517 222.696 239.304 222.216L239.687 223.085C239.484 222.6 239.344 222.094 239.268 221.577L239.403 222.544C239.339 222.026 239.341 221.503 239.409 220.985L239.274 221.952C239.347 221.49 239.476 221.037 239.659 220.604L239.277 221.473C239.484 221.016 239.748 220.586 240.063 220.19L239.47 220.927C239.793 220.537 240.162 220.184 240.57 219.875L239.802 220.444C240.216 220.143 240.665 219.89 241.14 219.689L240.234 220.056C240.583 219.918 240.943 219.809 241.312 219.731C243.321 219.185 244.5 217.193 243.96 215.258C243.365 213.35 241.309 212.231 239.296 212.718V212.718Z" fill="#190000"/>
<path d="M173.845 365.013C178.649 371.984 182.806 379.344 186.27 387.01C186.357 387.202 186.442 387.394 186.528 387.585C186.945 388.512 186.345 387.155 186.591 387.726C186.779 388.16 186.968 388.593 187.153 389.028C187.584 390.043 188.003 391.063 188.409 392.087C189.165 393.989 189.878 395.906 190.549 397.838C191.924 401.799 193.117 405.813 194.128 409.879C194.683 412.112 195.182 414.358 195.623 416.616C195.844 417.744 196.05 418.875 196.242 420.008C196.347 420.626 196.447 421.245 196.543 421.865C196.575 422.071 196.607 422.278 196.638 422.484C196.661 422.642 196.853 423.979 196.726 423.068C196.764 424.025 197.158 424.937 197.837 425.64C198.552 426.316 199.514 426.699 200.518 426.705C202.347 426.627 204.592 425.088 204.31 423.068C201.936 405.838 196.427 389.14 188.033 373.736C185.705 369.485 183.156 365.348 180.393 361.343C179.301 359.758 176.992 358.934 175.206 360.038C173.557 361.058 172.676 363.316 173.845 365.013L173.845 365.013Z" fill="#D89D35"/>
</g>
</g>
<defs>
<filter id="filter0_d_2_722" x="0" y="34.8566" width="441.093" height="388.483" filterUnits="userSpaceOnUse" color-interpolation-filters="sRGB">
<feFlood flood-opacity="0" result="BackgroundImageFix"/>
<feColorMatrix in="SourceAlpha" type="matrix" values="0 0 0 0 0 0 0 0 0 0 0 0 0 0 0 0 0 0 127 0" result="hardAlpha"/>
<feOffset dy="4"/>
<feGaussianBlur stdDeviation="2"/>
<feComposite in2="hardAlpha" operator="out"/>
<feColorMatrix type="matrix" values="0 0 0 0 0 0 0 0 0 0 0 0 0 0 0 0 0 0 0.25 0"/>
<feBlend mode="normal" in2="BackgroundImageFix" result="effect1_dropShadow_2_722"/>
<feBlend mode="normal" in="SourceGraphic" in2="effect1_dropShadow_2_722" result="shape"/>
</filter>
</defs>
</svg>
