<?xml version="1.0" encoding="utf-8"?>
<!-- Generator: Adobe Illustrator 25.3.0, SVG Export Plug-In . SVG Version: 6.00 Build 0)  -->
<svg version="1.1" id="Layer_1" xmlns="http://www.w3.org/2000/svg" xmlns:xlink="http://www.w3.org/1999/xlink" x="0px" y="0px"
	 viewBox="0 0 700 700" style="enable-background:new 0 0 700 700;" xml:space="preserve">
<style type="text/css">
	.st0{fill:#3A3530;}
</style>
<g>
	<path class="st0" d="M350,51.4c-79.2,0-155.1,31.5-211.1,87.4c-56,56-87.4,131.9-87.4,211.1s31.5,155.1,87.4,211.1
		c56,56,131.9,87.4,211.1,87.4s155.1-31.5,211.1-87.4c56-56,87.4-131.9,87.4-211.1c0-52.4-13.8-103.9-40-149.3
		c-26.2-45.4-63.9-83.1-109.3-109.3S402.4,51.4,350,51.4L350,51.4z M350,574L350,574c-59.4,0-116.4-23.6-158.3-65.6
		s-65.6-99-65.6-158.3s23.6-116.4,65.6-158.3s99-65.6,158.3-65.6s116.4,23.6,158.3,65.6s65.6,99,65.6,158.3s-23.6,116.4-65.6,158.3
		S409.4,573.9,350,574L350,574z"/>
	<path class="st0" d="M452.5,312.7H318.7l46.7-46.7c7.2-6.8,11.5-16,12.1-25.8c0.6-9.8-2.6-19.5-8.9-27.1
		c-6.8-7.6-16.5-12.1-26.7-12.4c-10.2-0.3-20.1,3.6-27.4,10.9l-80.2,80.2v0c-15.5,15.5-24.1,36.4-24.1,58.3
		c0,21.9,8.7,42.8,24.1,58.3l78.3,78.6c6.8,7.1,16,11.3,25.8,11.9c9.8,0.5,19.4-2.7,27-9c7.6-6.8,12.1-16.5,12.4-26.7
		c0.3-10.2-3.7-20.1-10.9-27.4l-48.2-48.3h133.8c9.9,0,19.4-3.9,26.4-10.9c7-7,10.9-16.5,10.9-26.4s-3.9-19.4-10.9-26.4
		C471.9,316.6,462.4,312.7,452.5,312.7L452.5,312.7z"/>
</g>
</svg>
