<svg width="407" height="390" viewBox="0 0 407 390" fill="none" xmlns="http://www.w3.org/2000/svg">
<ellipse opacity="0.27" cx="203.228" cy="194.897" rx="203.228" ry="194.897" fill="#E84B23"/>
<mask id="mask0_1_145" style="mask-type:luminance" maskUnits="userSpaceOnUse" x="0" y="0" width="407" height="390">
<ellipse cx="203.228" cy="194.897" rx="203.228" ry="194.897" fill="white"/>
</mask>
<g mask="url(#mask0_1_145)">
<path d="M395.211 853.193C464.197 865.705 498.356 786.15 498.356 786.15C498.356 786.15 450.716 609.672 451.409 597.696C452.103 585.719 425.525 330.627 405.569 319.18C385.612 307.733 341.264 302.116 341.264 302.116C341.264 302.116 329.994 488.905 332.77 500.052C335.545 511.199 395.211 853.193 395.211 853.193Z" fill="#F0F3FC"/>
<mask id="mask1_1_145" style="mask-type:luminance" maskUnits="userSpaceOnUse" x="332" y="302" width="167" height="553">
<path fill-rule="evenodd" clip-rule="evenodd" d="M395.211 853.193C464.196 865.705 498.356 786.15 498.356 786.15C498.356 786.15 450.716 609.673 451.409 597.696C452.102 585.72 425.525 330.628 405.569 319.18C385.612 307.733 341.264 302.116 341.264 302.116C341.264 302.116 329.994 488.906 332.77 500.053C335.545 511.2 395.211 853.193 395.211 853.193Z" fill="white"/>
</mask>
<g mask="url(#mask1_1_145)">
<path d="M343.134 476.371C392.306 313.385 406.589 689.292 437.84 890.645C477.569 1146.63 236.956 753.363 236.956 753.363L300.871 521.613" fill="#D6DCF2"/>
</g>
<path d="M-109.018 735.138C-125.547 788.176 -46.8076 814.946 -46.8076 814.946C-46.8076 814.946 48.7748 713.912 80.227 685.523C111.679 657.135 70.0511 346.634 70.0511 346.634L54.6388 320.949C1.59635 342.199 1.00372 353.059 1.00372 353.059C-9.50444 364.377 -41.4321 641.429 -43.2823 650.3C-45.1325 659.172 -109.018 735.138 -109.018 735.138Z" fill="#F0F3FC"/>
<path d="M-197.265 390.379L-213.402 396.568L-222.651 374.391C-223.489 372.378 -225.128 370.767 -227.205 369.913C-229.282 369.059 -231.628 369.032 -233.727 369.838L-261.189 380.371C-263.289 381.175 -264.969 382.746 -265.861 384.739C-266.752 386.731 -266.782 388.982 -265.943 390.995L-256.694 413.173L-272.825 419.36C-285.965 424.399 -296.48 434.238 -302.056 446.712C-307.632 459.186 -307.812 473.273 -302.557 485.875L-63.7238 1058.58L110.923 991.592L-127.911 418.891C-138.853 392.652 -169.903 379.887 -197.265 390.379V390.379Z" fill="#516DDB"/>
<path d="M152.866 183.811C167.398 214.618 152.866 306.613 152.866 306.613L176.514 388.788L217.918 414.198L260.038 295.603L252.025 177.883L152.866 183.811Z" fill="#FF9763"/>
<mask id="mask2_1_145" style="mask-type:luminance" maskUnits="userSpaceOnUse" x="152" y="177" width="109" height="238">
<path fill-rule="evenodd" clip-rule="evenodd" d="M152.866 183.811C167.398 214.618 152.866 306.613 152.866 306.613L176.514 388.788L217.918 414.198L260.038 295.603L252.025 177.882L152.866 183.811Z" fill="white"/>
</mask>
<g mask="url(#mask2_1_145)">
<path d="M91.7946 260.37C190.928 273.959 256.337 224.449 260.038 210.436C263.74 196.423 172.726 200.419 172.726 200.419L141.387 203.617L124.856 245.982" fill="#E84B23"/>
</g>
<path d="M51.466 405.825C33.1541 777.286 -40.1381 1185.47 -2.91496 1338.32C175.848 1388.88 221.055 1366.77 221.055 1366.77L201.492 467.456L139.627 288.318L49.6852 322.945" fill="#F0F3FC"/>
<path d="M365.629 307.446C365.629 307.446 295.497 290.702 287.769 291.61C280.041 292.519 201.492 482.337 201.492 482.337L179.706 1343.22C267.09 1374.98 408.739 1359.61 456.38 1338.32C422.62 1048.27 373.588 613.997 362.984 414.198" fill="#F0F3FC"/>
<path d="M158.328 315.296L141.834 352.699L204.982 563.956L249.053 480.341L285.312 350.749L269.899 307.733L209.878 314.595L192.033 316.235L169.945 317.958" fill="#589BF7"/>
<path d="M131.012 288.078C131.012 288.078 152.91 260.241 159.369 260.153C159.369 260.153 172.109 298.392 209.878 314.595L179.401 358.045C179.401 358.045 119.491 315.621 131.012 288.078Z" fill="#FFC562"/>
<path d="M287.721 285.948C287.721 285.948 264.803 258.72 258.344 258.807C258.344 258.807 247.027 297.373 209.877 314.595L241.948 357.195C241.948 357.195 300.257 313.164 287.721 285.948Z" fill="#FFC562"/>
<path d="M142.828 273.078C142.828 273.078 202.995 546.717 221.056 575.28L193.46 611.292L99.805 440.551L137.398 410.163L87.6541 396.969L116.707 295.208C116.707 295.208 134.14 277.286 142.828 273.078Z" fill="white"/>
<path d="M273.811 270.663L193.46 611.292L330.547 445.239L292.006 405.928L341.335 396.721L305.746 294.061C305.746 294.061 300.249 278.306 273.811 270.663Z" fill="white"/>
<ellipse cx="280.316" cy="41.7646" rx="37.3472" ry="41.7646" fill="#4B4D5C"/>
<path d="M206.097 30.0086C160.451 30.0086 123.445 75.1881 123.445 130.921C123.445 186.654 160.451 231.833 206.097 231.833C251.746 231.833 288.751 186.653 288.751 130.921C288.751 75.1886 251.746 30.0086 206.097 30.0086Z" fill="#4B4D5C"/>
<path d="M139.976 90.9305C139.976 90.9305 198.606 2.46556 267.863 63.8797L275.819 76.7389C275.819 76.7389 218.343 15.3314 139.976 90.9305Z" fill="#FFC562"/>
<path d="M279.492 143.953C280.081 144.111 280.654 144.263 281.219 144.414C280.565 144.24 279.983 144.084 279.492 143.953Z" fill="#4B4D5C"/>
<path d="M281.219 144.414C284.889 145.395 290.821 146.982 295.975 148.359C292.31 147.38 287.411 146.07 281.219 144.414Z" fill="#4B4D5C"/>
<path d="M278.76 143.757C278.977 143.814 279.213 143.879 279.492 143.953C279.241 143.886 279.015 143.826 278.76 143.757Z" fill="#4B4D5C"/>
<path d="M277.732 143.482C278.096 143.58 278.404 143.662 278.76 143.757C278.125 143.587 277.732 143.482 277.732 143.482Z" fill="#4B4D5C"/>
<path d="M295.975 148.359C296.577 148.52 297.075 148.654 297.616 148.799C297.077 148.656 296.533 148.508 295.975 148.359Z" fill="#4B4D5C"/>
<path d="M225.054 74.2444C225.054 74.2444 177.745 137.933 136.709 145.997C136.45 148.985 136.303 152.011 136.303 155.082C136.303 202.327 163.242 240.627 207.016 240.627C251.404 240.627 277.732 202.327 277.732 155.082C277.707 151.123 277.455 147.169 276.977 143.237C214.404 126.041 225.054 74.2444 225.054 74.2444Z" fill="#FF9763"/>
<mask id="mask3_1_145" style="mask-type:luminance" maskUnits="userSpaceOnUse" x="136" y="74" width="142" height="167">
<path fill-rule="evenodd" clip-rule="evenodd" d="M225.055 74.2444C225.055 74.2444 177.745 137.933 136.709 145.997C136.45 148.985 136.303 152.011 136.303 155.082C136.303 202.327 163.242 240.627 207.016 240.627C251.404 240.627 277.732 202.327 277.732 155.082C277.707 151.123 277.455 147.169 276.977 143.237C214.404 126.041 225.055 74.2444 225.055 74.2444Z" fill="white"/>
</mask>
<g mask="url(#mask3_1_145)">
<ellipse opacity="0.27" cx="14.9342" cy="20.4498" rx="14.9342" ry="20.4498" transform="matrix(0.0190461 -0.999819 0.999847 0.0175171 227.799 185.644)" fill="#E84B23"/>
<ellipse opacity="0.27" cx="14.9342" cy="20.4498" rx="14.9342" ry="20.4498" transform="matrix(0.0190461 -0.999819 0.999847 0.0175171 145.674 186.948)" fill="#E84B23"/>
<path d="M234.319 156.273V156.273C230.304 156.273 227.049 153.151 227.049 149.3V137.524C227.049 133.674 230.304 130.552 234.319 130.552V130.552C238.335 130.552 241.59 133.674 241.59 137.525V149.3C241.59 151.15 240.824 152.923 239.46 154.231C238.097 155.538 236.248 156.273 234.319 156.273L234.319 156.273Z" fill="#190000"/>
<path d="M180.152 156.273V156.273C176.136 156.273 172.881 153.151 172.881 149.301V137.525C172.881 135.675 173.647 133.902 175.011 132.594C176.374 131.287 178.224 130.552 180.152 130.552V130.552C182.08 130.552 183.93 131.287 185.293 132.594C186.657 133.902 187.423 135.675 187.423 137.525V149.3C187.423 151.15 186.657 152.923 185.293 154.231C183.93 155.538 182.08 156.273 180.152 156.273Z" fill="#190000"/>
<path d="M234.496 115.208C249.544 118.591 245.896 126.546 236.346 125.019C226.795 123.493 224.665 112.998 234.496 115.208Z" fill="#190000"/>
<path d="M178.925 113.592C164.34 118.497 167.698 125.496 177.024 122.999C186.35 120.503 188.454 110.386 178.925 113.592Z" fill="#190000"/>
<path d="M200.069 159.384C199.776 164.09 204.094 162.465 209.277 162.762C214.459 163.059 218.545 165.165 218.838 160.459C219.131 155.753 215.167 151.698 209.984 151.401C204.801 151.104 200.362 154.678 200.069 159.384Z" fill="#E84B23"/>
<path d="M230.517 182.861C225.895 217.14 191.713 204.75 189.885 183.701C189.809 182.61 190.452 181.59 191.495 181.148C195.888 179.227 208.733 174.989 228.473 179.976C229.808 180.316 230.68 181.546 230.517 182.861V182.861Z" fill="#C1525F"/>
<mask id="mask4_1_145" style="mask-type:luminance" maskUnits="userSpaceOnUse" x="189" y="177" width="42" height="28">
<path fill-rule="evenodd" clip-rule="evenodd" d="M230.517 182.861C225.895 217.14 191.713 204.75 189.885 183.701C189.809 182.61 190.452 181.59 191.494 181.148C195.887 179.227 208.733 174.989 228.472 179.976C229.808 180.316 230.679 181.546 230.517 182.861V182.861Z" fill="white"/>
</mask>
<g mask="url(#mask4_1_145)">
<ellipse cx="15.5164" cy="18.0131" rx="15.5164" ry="18.0131" transform="matrix(0.285899 -0.95826 0.964355 0.264612 184.493 213.03)" fill="#993443"/>
<path d="M223.991 177.726C224.064 179.973 223.943 183.033 223.351 183.608C219.705 187.15 201.394 186.223 198.829 184.349C198.116 183.828 197.767 176.588 197.767 176.588L221.171 176.596" fill="#F0F3FC"/>
</g>
<path d="M152.488 157.436C158.269 170.209 137.81 201.595 137.81 201.595L157.113 248.499L245.919 245.394L282.625 223.216L281.437 197.343C281.437 197.343 254.305 183.844 266.093 155.909C266.093 155.909 226.928 168.397 209.277 162.762C209.277 162.763 184.865 171.942 152.488 157.436Z" fill="#F0F3FC"/>
</g>
<path d="M143.694 187.087C135.088 189.63 123.362 180.83 117.503 167.432C111.644 154.034 113.87 141.112 122.475 138.569C129.902 136.375 139.653 142.628 145.951 152.993" fill="#FF9763"/>
<path d="M269.546 186.026C277.865 189.332 290.4 181.625 297.544 168.813C304.688 156.002 303.736 142.936 295.417 139.63C289.177 137.151 280.566 140.866 273.637 148.283" fill="#FF9763"/>
<path fill-rule="evenodd" clip-rule="evenodd" d="M136.303 140.822C136.303 156.798 151.578 169.795 170.353 169.795C189.129 169.795 204.404 156.798 204.404 140.822C204.404 124.846 189.128 111.85 170.353 111.85C151.578 111.85 136.303 124.847 136.303 140.822ZM141.209 140.822C141.209 126.745 154.283 115.291 170.353 115.291C186.423 115.291 199.498 126.744 199.498 140.822C199.498 154.901 186.423 166.354 170.353 166.354C154.283 166.354 141.209 154.9 141.209 140.822Z" fill="#E84B23"/>
<path fill-rule="evenodd" clip-rule="evenodd" d="M214.524 140.822C214.524 156.798 229.799 169.795 248.574 169.795C267.35 169.795 282.625 156.798 282.625 140.822C282.625 124.846 267.35 111.85 248.574 111.85C229.799 111.85 214.524 124.847 214.524 140.822ZM219.43 140.822C219.43 126.745 232.504 115.291 248.574 115.291C264.645 115.291 277.719 126.744 277.719 140.822C277.719 154.901 264.645 166.354 248.574 166.354C232.504 166.354 219.43 154.9 219.43 140.822Z" fill="#E84B23"/>
<ellipse cx="211.65" cy="364.351" rx="7.46175" ry="7.15587" fill="#F0F3FC"/>
</g>
</svg>
