<svg width="407" height="391" viewBox="0 0 407 391" fill="none" xmlns="http://www.w3.org/2000/svg">
<path d="M203.651 390.17C315.891 390.17 406.879 302.912 406.879 195.273C406.879 87.6344 315.891 0.376007 203.651 0.376007C91.4113 0.376007 0.423004 87.6344 0.423004 195.273C0.423004 302.912 91.4113 390.17 203.651 390.17Z" fill="#97CE64"/>
<mask id="mask0_1_49" style="mask-type:luminance" maskUnits="userSpaceOnUse" x="0" y="0" width="407" height="391">
<path d="M203.651 390.17C315.891 390.17 406.879 302.912 406.879 195.273C406.879 87.6344 315.891 0.376007 203.651 0.376007C91.4113 0.376007 0.423004 87.6344 0.423004 195.273C0.423004 302.912 91.4113 390.17 203.651 390.17Z" fill="white"/>
</mask>
<g mask="url(#mask0_1_49)">
<path d="M297.759 366.066C297.759 317.411 381.367 373.013 381.367 373.013C381.367 373.013 502.582 513.235 524.875 552.696C542.099 583.182 447.368 560.147 447.368 560.147L400.258 520.955C400.258 520.955 297.759 485.357 297.759 366.066Z" fill="#F0F3FC"/>
<path d="M394.461 388.929C379.435 363.299 341.192 341.414 252.921 318.935L233.961 426.258L218.019 543.607L129.767 1385.25C277.794 1424.47 403.535 1338.55 403.535 1338.55C391.98 1053.48 386.305 659.718 379.269 480.751" fill="#F0F3FC"/>
<path d="M119.99 318.935C119.99 318.935 -15.1708 345.382 -43.0915 418.23C75.4008 905.524 -109.686 926.014 -125.963 1329.48C-125.963 1329.48 131.889 1441.89 230.66 1419.14C359.824 769.112 264.056 454.598 264.056 454.598L119.99 318.935Z" fill="#F0F3FC"/>
<path d="M222.915 199.047C213.065 233.508 237.41 305.541 237.41 305.541C237.41 305.541 279.262 367.815 225.471 366.028C171.681 364.242 129.468 312.491 129.468 312.491L125.553 215.088L119.99 209.095L222.915 199.047Z" fill="#FF9763"/>
<mask id="mask1_1_49" style="mask-type:luminance" maskUnits="userSpaceOnUse" x="119" y="199" width="134" height="168">
<path fill-rule="evenodd" clip-rule="evenodd" d="M222.915 199.047C213.065 233.508 237.41 305.542 237.41 305.542C237.41 305.542 279.262 367.815 225.471 366.029C171.681 364.242 129.468 312.492 129.468 312.492L125.553 215.089L119.99 209.095L222.915 199.047Z" fill="white"/>
</mask>
<g mask="url(#mask1_1_49)">
<path d="M125.859 216.254C157.726 299.856 246.901 316.962 246.901 316.962L224.709 227.434C224.709 227.434 106.264 164.848 125.859 216.254Z" fill="#E84B23"/>
</g>
<path d="M253.872 97.9263C262.699 117.745 257.783 180.502 244.146 185.457C230.509 190.412 230.52 104.533 230.52 104.533L253.872 97.9263Z" fill="#4B4D5C"/>
<path d="M116.223 143.206C118.955 221.24 139.446 277.392 197.126 280.145C268.796 283.565 252.833 117.194 252.833 117.194H116.223V143.206Z" fill="#FF9763"/>
<mask id="mask2_1_49" style="mask-type:luminance" maskUnits="userSpaceOnUse" x="116" y="117" width="139" height="164">
<path fill-rule="evenodd" clip-rule="evenodd" d="M116.223 143.206C118.955 221.24 139.446 277.392 197.126 280.145C268.796 283.565 252.833 117.194 252.833 117.194H116.223V143.206Z" fill="white"/>
</mask>
<g mask="url(#mask2_1_49)">
<path opacity="0.27" d="M258.844 216.525C269.262 216.19 277.493 209.752 277.228 202.144C276.962 194.536 268.301 188.639 257.883 188.973C247.465 189.307 239.234 195.746 239.499 203.354C239.765 210.962 248.425 216.859 258.844 216.525Z" fill="#E84B23"/>
<path opacity="0.27" d="M169.76 219.382C180.178 219.047 188.409 212.609 188.144 205.001C187.878 197.393 179.217 191.496 168.799 191.83C158.381 192.164 150.15 198.603 150.415 206.211C150.681 213.819 159.341 219.716 169.76 219.382Z" fill="#E84B23"/>
<path d="M237.884 185.274C234.198 185.648 230.895 183.085 230.505 179.55L229.315 168.742C228.926 165.208 231.598 162.04 235.283 161.666C238.969 161.293 242.272 163.856 242.662 167.39L243.852 178.199C244.241 181.733 241.569 184.901 237.884 185.274Z" fill="#190000"/>
<path d="M187.899 186.698C184.214 187.071 180.911 184.509 180.521 180.974L179.331 170.166C178.942 166.631 181.614 163.463 185.3 163.09C188.985 162.717 192.289 165.279 192.678 168.814L193.868 179.622C194.055 181.32 193.531 183.019 192.412 184.346C191.293 185.673 189.669 186.519 187.899 186.698Z" fill="#190000"/>
<path d="M235.287 146.414C249.326 148.844 246.359 156.343 237.48 155.372C228.601 154.402 226.115 144.826 235.287 146.414Z" fill="#190000"/>
<path d="M183.986 147.465C170.786 152.654 174.229 158.951 182.701 156.223C191.173 153.496 192.609 144.075 183.986 147.465Z" fill="#190000"/>
<path d="M208.456 187.329C208.42 191.68 212.319 189.984 217.111 190.021C221.903 190.058 225.773 191.812 225.809 187.461C225.845 183.11 221.99 179.553 217.198 179.517C212.406 179.48 208.492 182.977 208.456 187.329Z" fill="#E84B23"/>
<path d="M235.717 210.577C230.056 242.013 199.042 229.304 198.215 209.826C198.189 208.817 198.824 207.9 199.804 207.532C203.933 205.925 215.951 202.5 233.95 207.84C235.167 208.203 235.921 209.37 235.717 210.577Z" fill="#C1525F"/>
<mask id="mask3_1_49" style="mask-type:luminance" maskUnits="userSpaceOnUse" x="198" y="204" width="38" height="26">
<path fill-rule="evenodd" clip-rule="evenodd" d="M235.717 210.577C230.056 242.013 199.042 229.304 198.215 209.826C198.189 208.817 198.824 207.901 199.804 207.532C203.933 205.925 215.951 202.5 233.95 207.84C235.167 208.203 235.921 209.37 235.717 210.577Z" fill="white"/>
</mask>
<g mask="url(#mask3_1_49)">
<path d="M228.392 233.219C230.987 225.738 226.005 217.414 217.266 214.627C208.527 211.839 199.339 215.643 196.745 223.124C194.15 230.604 199.132 238.928 207.871 241.716C216.61 244.503 225.798 240.699 228.392 233.219Z" fill="#993443"/>
<path d="M229.91 205.597C229.885 207.671 229.648 210.488 229.079 210.996C225.572 214.126 208.725 212.583 206.437 210.759C205.8 210.252 205.774 203.562 205.774 203.562L227.355 204.449" fill="#F0F3FC"/>
</g>
</g>
<path d="M103.796 203C126.261 203 105.446 123.249 141.875 128.755C178.304 134.26 268.771 151.876 271.806 77.0068C274.842 2.13773 120.625 36.2692 98.1598 77.0068C75.6951 117.744 103.796 203 103.796 203Z" fill="#4B4D5C"/>
<path d="M249.153 338.803L276.435 373.292L290.31 477.167L226.713 479.745L150.433 361.687L149.091 324.386L198.419 342.604L219.7 348.874L239.922 340.379" fill="#589BF7"/>
<path d="M225.468 358.112L276.155 479.69L284.733 561.97L265.629 553.813L211.604 471.033L203.026 349.105L225.468 358.112Z" fill="#FFC562"/>
<path d="M233.761 337.386L232.017 356.591C230.72 362.117 205.17 379.58 191.182 356.225L171.307 334.059L213.821 345.636L233.761 337.386Z" fill="#F08059"/>
<path d="M250.28 320.091C250.28 320.091 247.207 306.25 235.175 298.492C235.175 298.492 239.009 327.249 213.821 345.636L237.046 368.901C237.046 368.901 262.272 348.811 250.28 320.091Z" fill="#2976DF"/>
<path d="M245.155 308.603C245.155 308.603 269.868 539.574 263.392 563.446L277.514 586.506L301.442 439.748L281.434 410.718L311.019 406.861L268.87 331.064C268.87 331.064 260.784 311.427 245.155 308.603Z" fill="white"/>
<path d="M115.32 310.204C115.32 310.204 122.625 281.395 128.28 281.607C128.28 281.607 153.457 329.173 213.821 345.636L196.275 378.053C196.275 378.053 115.169 333.826 115.32 310.204Z" fill="#2976DF"/>
<path d="M119.913 296.544L280.398 551.1L295.599 586.049L146.933 452.977L163.241 419.222L122.211 399.754L106.63 330.298C106.63 330.298 101.105 302.743 119.913 296.544Z" fill="white"/>
<path d="M254.349 181.348C243.818 193.867 224.231 185.663 224.231 185.663C224.231 185.663 203.762 205.537 149.445 181.348C148.693 181.348 113.185 168.671 113.185 168.671L114.166 172.481L144.557 191.782C143.164 202.435 143.269 218.491 139.672 227.048L103.796 207.755C103.796 207.755 133.234 232.893 132.919 232.89C197.937 341.568 276.31 259.38 254.349 181.348Z" fill="#F0F3FC"/>
<path d="M128.928 184.588C97.4013 147.703 74.653 184.508 92.03 203C102.352 213.984 131.472 221.263 131.472 221.263" fill="#FF9763"/>
<path d="M101.561 191.009V192.55C101.636 195.241 103.892 197.405 106.698 197.477L108.063 197.301C108.921 197.074 109.702 196.637 110.33 196.034L111.133 195.037C111.594 194.283 111.836 193.424 111.835 192.55V191.009C111.76 188.319 109.503 186.155 106.698 186.083L105.332 186.259C104.475 186.486 103.694 186.922 103.066 187.526L102.262 188.523C101.802 189.277 101.56 190.135 101.561 191.009Z" fill="#373947"/>
<path d="M189.659 83.5128C199.165 84.9759 208.896 84.3007 218.084 81.5406C220.639 80.7543 222.551 78.0862 221.672 75.4807C220.844 73.0278 218.093 71.1968 215.353 72.0401C213.372 72.6528 211.358 73.1606 209.319 73.5612C208.299 73.7605 207.273 73.9247 206.244 74.0757C205.077 74.2465 207.098 73.9848 206.407 74.0549C206.119 74.0841 205.833 74.1211 205.546 74.1509C205.029 74.2046 204.511 74.2512 203.992 74.2908C201.917 74.4502 199.835 74.4985 197.754 74.4355C196.714 74.4039 195.676 74.3444 194.639 74.2569C194.121 74.2132 193.603 74.1626 193.086 74.1049C192.857 74.0793 192.628 74.0425 192.398 74.0237C193.89 74.1456 192.69 74.056 192.39 74.0122C191.052 73.7078 189.644 73.8845 188.432 74.5088C187.255 75.1681 186.4 76.2487 186.054 77.5128C185.709 78.777 185.901 80.121 186.589 81.2491C187.25 82.3716 188.358 83.1884 189.659 83.5128Z" fill="#373947"/>
</g>
</svg>
