<svg width="407" height="390" viewBox="0 0 407 390" fill="none" xmlns="http://www.w3.org/2000/svg">
<ellipse cx="203.228" cy="194.897" rx="203.228" ry="194.897" fill="#FCDDEC"/>
<mask id="mask0_3_863" style="mask-type:luminance" maskUnits="userSpaceOnUse" x="0" y="0" width="407" height="390">
<ellipse cx="203.228" cy="194.897" rx="203.228" ry="194.897" fill="white"/>
</mask>
<g mask="url(#mask0_3_863)">
<path d="M-299.193 698.342C-316.171 716.166 -227.658 830.797 -227.658 830.797C-227.658 830.797 -48.8802 749.586 20.2789 676.76C89.4379 603.934 140.477 333.241 140.477 333.241C140.477 333.241 90.413 314.245 75.4662 315.346C0.469427 320.866 -88.726 573.852 -88.726 573.852L-299.193 698.342Z" fill="#F08059"/>
<mask id="mask1_3_863" style="mask-type:luminance" maskUnits="userSpaceOnUse" x="-302" y="315" width="443" height="516">
<path fill-rule="evenodd" clip-rule="evenodd" d="M-299.193 698.343C-316.171 716.166 -227.658 830.797 -227.658 830.797C-227.658 830.797 -48.8805 749.586 20.2785 676.76C89.4376 603.934 140.476 333.241 140.476 333.241C140.476 333.241 90.4126 314.245 75.4659 315.346C0.469091 320.866 -88.7264 573.852 -88.7264 573.852L-299.193 698.343Z" fill="white"/>
</mask>
<g mask="url(#mask1_3_863)">
<path d="M62.7253 375.775C-67.1885 432.518 94.8823 435.602 -20.8825 618.783C-136.647 801.965 193.648 695.263 193.648 695.263L101.957 703.281V645.921" fill="#D35D3D"/>
</g>
<path d="M34.6984 367.029C19.0958 397.908 9.33558 438.388 34.4276 475.056C83.6562 546.996 -43.0268 688.514 -43.0268 688.514C53.7211 697.735 281.531 668.656 281.531 668.656C230.539 524.776 350.083 325.138 341.57 321.204C244.285 276.241 70.1217 316.505 70.1217 316.505" fill="#F08059"/>
<mask id="mask2_3_863" style="mask-type:luminance" maskUnits="userSpaceOnUse" x="-44" y="299" width="387" height="392">
<path fill-rule="evenodd" clip-rule="evenodd" d="M34.6982 367.029C19.0956 397.908 9.3354 438.388 34.4274 475.056C83.6561 546.996 -43.027 688.514 -43.027 688.514C53.721 697.735 281.531 668.656 281.531 668.656C230.539 524.776 350.083 325.138 341.57 321.204C244.284 276.241 70.1215 316.505 70.1215 316.505" fill="white"/>
</mask>
<g mask="url(#mask2_3_863)">
<path d="M82.9367 509.376C57.8373 390.461 165.95 383.572 97.9958 505.28Z" fill="#FFC562"/>
<path d="M88.6501 507.023C158.925 372.383 212.859 454.451 98.3173 515.447Z" fill="#FFC562"/>
<path d="M79.0731 515.133C-26.6975 481.603 72.2629 389.791 90.703 500.917Z" fill="#FFC562"/>
</g>
<path d="M338.883 319.995C366.62 329.768 483.94 425.998 483.94 425.998L615.181 278.862C697.311 325.477 683.353 402.913 683.353 402.913C683.353 402.913 539.934 627.418 484.945 632.969C412.91 640.241 257.77 463.108 227.43 427.57" fill="#F08059"/>
<mask id="mask3_3_863" style="mask-type:luminance" maskUnits="userSpaceOnUse" x="227" y="278" width="458" height="356">
<path fill-rule="evenodd" clip-rule="evenodd" d="M338.883 319.995C366.62 329.768 483.939 425.998 483.939 425.998L615.181 278.862C697.311 325.477 683.353 402.913 683.353 402.913C683.353 402.913 539.933 627.418 484.945 632.969C412.909 640.241 257.769 463.108 227.429 427.57" fill="white"/>
</mask>
<g mask="url(#mask3_3_863)">
</g>
<path d="M145.972 317.971L158.809 191.538L240.153 189.014C225.753 215.647 239.502 279.03 248.033 307.148" fill="#FF9763"/>
<ellipse cx="112.281" cy="89.5129" rx="112.281" ry="89.5129" transform="matrix(0.943902 -0.330227 0.355545 0.934659 48.7237 81.7636)" fill="#516DDB"/>
<path d="M237.876 67.5749C373.879 204.707 257.021 279.789 189.749 226.745L155.469 152.368L237.876 67.5749Z" fill="#FF9763"/>
<mask id="mask4_3_863" style="mask-type:luminance" maskUnits="userSpaceOnUse" x="155" y="67" width="146" height="177">
<path fill-rule="evenodd" clip-rule="evenodd" d="M237.876 67.5747C373.879 204.707 257.021 279.789 189.749 226.744L155.469 152.367L237.876 67.5747Z" fill="white"/>
</mask>
<g mask="url(#mask4_3_863)">
<ellipse opacity="0.27" cx="17.3994" cy="23.9335" rx="17.3994" ry="23.9335" transform="matrix(0.532482 -0.846441 0.86557 0.500788 286.01 196.804)" fill="#E84B23"/>
<ellipse opacity="0.27" cx="17.3994" cy="23.9335" rx="17.3994" ry="23.9335" transform="matrix(0.532482 -0.846441 0.86557 0.500788 179.37 175.506)" fill="#E84B23"/>
<path d="M287.002 160.556V160.556C283.53 160.103 281.098 157.036 281.571 153.706L283.016 143.522C283.489 140.191 286.687 137.859 290.159 138.313V138.313C293.632 138.766 296.064 141.833 295.591 145.163L294.146 155.347C293.919 156.946 293.039 158.393 291.699 159.37C290.359 160.347 288.67 160.774 287.002 160.556Z" fill="#190000"/>
<path d="M246.957 153.584V153.584C243.484 153.13 241.053 150.063 241.525 146.733L242.971 136.549C243.443 133.219 246.641 130.887 250.114 131.34V131.34C253.587 131.793 256.019 134.861 255.546 138.191L254.1 148.375C253.628 151.705 250.43 154.037 246.957 153.584L246.957 153.584Z" fill="#190000"/>
<path d="M293.745 124.306C306.068 129.57 301.581 135.816 293.655 133.007C285.728 130.198 285.694 120.867 293.745 124.306Z" fill="#190000"/>
<path d="M252.579 116.703C239.237 118.617 240.92 125.144 249.342 124.469C257.763 123.794 261.295 115.452 252.579 116.703Z" fill="#190000"/>
<path d="M257.028 158.935C256.356 163.671 261.21 162.393 266.869 163.131C272.528 163.87 276.849 166.346 277.521 161.61C278.194 156.874 274.151 152.435 268.492 151.697C262.833 150.959 257.7 154.199 257.028 158.935Z" fill="#E84B23"/>
<path d="M286.011 188.212C267.616 228.631 230.339 201.774 235.916 175.36C236.228 173.998 237.395 172.968 238.837 172.782C244.932 171.929 262.245 171.125 284.577 183.979C286.088 184.851 286.699 186.655 286.011 188.212Z" fill="#C1525F"/>
<mask id="mask5_3_863" style="mask-type:luminance" maskUnits="userSpaceOnUse" x="235" y="172" width="52" height="37">
<path fill-rule="evenodd" clip-rule="evenodd" d="M286.011 188.212C267.616 228.631 230.339 201.774 235.916 175.36C236.228 173.998 237.395 172.968 238.837 172.782C244.932 171.929 262.245 171.125 284.577 183.979C286.088 184.851 286.699 186.655 286.011 188.212Z" fill="white"/>
</mask>
<g mask="url(#mask5_3_863)">
<ellipse cx="19.9756" cy="22.7896" rx="19.9756" ry="22.7896" transform="matrix(0.548566 -0.836107 0.856203 0.516639 218.417 209.451)" fill="#993443"/>
<path d="M279.923 179.692C279.178 182.469 277.893 186.177 276.954 186.679C271.171 189.773 249.081 182.382 246.635 179.211C245.954 178.328 248.216 169.338 248.216 169.338L276.887 177.343" fill="#F0F3FC"/>
</g>
</g>
<path d="M169.828 187.808L130.738 148.192L194.139 57.8674L228.135 55.9003C228.135 55.9003 239.744 47.9835 244.062 55.9003" fill="#516DDB"/>
<path d="M244.062 55.9C259.019 83.323 263.958 141.38 169.827 187.808Z" fill="#516DDB"/>
<path d="M199.603 176.428C107.495 156.895 132.214 227.973 194.323 228.665Z" fill="#FF9763"/>
<ellipse cx="165.106" cy="228.665" rx="18.2134" ry="17.4668" fill="#BB393C"/>
<path d="M165.775 193.882V194.933C165.852 197.686 168.161 199.9 171.031 199.974L172.428 199.794C173.305 199.561 174.104 199.115 174.747 198.497L175.569 197.477C176.04 196.706 176.288 195.828 176.287 194.933V193.882C176.21 191.13 173.901 188.915 171.031 188.842L169.634 189.022C168.757 189.254 167.958 189.701 167.315 190.318L166.493 191.338C166.022 192.11 165.774 192.988 165.775 193.882H165.775Z" fill="#373947"/>
</g>
</svg>
