<svg width="42" height="42" viewBox="0 0 42 42" fill="none" xmlns="http://www.w3.org/2000/svg">
    <path fill-rule="evenodd" clip-rule="evenodd" d="M38.8261 6.7006C38.953 6.26535 38.9606 5.80399 38.8481 5.36479C38.7356 4.92559 38.5071 4.52472 38.1865 4.20413C37.8659 3.88354 37.465 3.65503 37.0258 3.5425C36.5866 3.42998 36.1253 3.4376 35.69 3.56454L5.34108 12.4163C4.87201 12.5534 4.4527 12.8235 4.13387 13.1938C3.81504 13.5642 3.61034 14.019 3.54453 14.5032C3.47871 14.9875 3.5546 15.4804 3.76302 15.9224C3.97144 16.3645 4.30346 16.7366 4.71892 16.994L15.2804 23.5341L11.8484 26.9661C11.6068 27.1994 11.4142 27.4785 11.2816 27.787C11.1491 28.0956 11.0793 28.4275 11.0764 28.7633C11.0735 29.0991 11.1375 29.4321 11.2646 29.7429C11.3918 30.0537 11.5796 30.3361 11.817 30.5736C12.0545 30.811 12.3369 30.9988 12.6477 31.126C12.9585 31.2532 13.2915 31.3171 13.6274 31.3142C13.9632 31.3113 14.295 31.2415 14.6036 31.109C14.9121 30.9765 15.1912 30.7838 15.4245 30.5422L18.8565 27.1103L25.3967 37.6717C25.654 38.0872 26.0262 38.4192 26.4682 38.6276C26.9102 38.836 27.4031 38.9119 27.8874 38.8461C28.3716 38.7803 28.8264 38.5756 29.1968 38.2568C29.5672 37.9379 29.8372 37.5186 29.9743 37.0495L38.8261 6.7006ZM22.5312 23.4355L26.7093 30.1831L31.206 14.7608L22.5312 23.4355ZM27.6299 11.1847L12.2075 15.6788L18.9551 19.8569L27.6299 11.1821V11.1847Z" fill="white"/>
</svg>
