<svg width="20" height="15" viewBox="0 0 20 15" fill="none" xmlns="http://www.w3.org/2000/svg">
    <path d="M6.48914 11.4688L8.89174 12.9688C9.20175 13.2188 9.89928 13.3438 10.3643 13.3438H13.3094C14.2395 13.3438 15.247 12.7813 15.4795 12.0313L17.3396 7.46879C17.7271 6.59379 17.0296 5.84379 15.867 5.84379H12.7669C12.3019 5.84379 11.9144 5.53129 11.9919 5.09379L12.3794 3.09379C12.5344 2.53129 12.0694 1.90629 11.3718 1.71879C10.7518 1.53129 9.97678 1.78129 9.66677 2.15629L6.48914 5.96879" stroke="#97CC64" stroke-width="1.5" stroke-miterlimit="10"/>
    <path d="M2.5365 11.4688V5.34375C2.5365 4.46875 3.00152 4.15625 4.08656 4.15625H4.8616C5.94664 4.15625 6.41166 4.46875 6.41166 5.34375V11.4688C6.41166 12.3438 5.94664 12.6563 4.8616 12.6563H4.08656C3.00152 12.6563 2.5365 12.3438 2.5365 11.4688Z" stroke="#97CC64" stroke-width="1.5" stroke-linecap="round" stroke-linejoin="round"/>
</svg>
