<svg width="434" height="416" viewBox="0 0 434 416" fill="none" xmlns="http://www.w3.org/2000/svg">
<ellipse cx="216.546" cy="207.67" rx="216.546" ry="207.67" fill="#9A7ED9"/>
<mask id="mask0_1_528" style="mask-type:luminance" maskUnits="userSpaceOnUse" x="0" y="0" width="434" height="416">
<ellipse cx="216.546" cy="207.67" rx="216.546" ry="207.67" fill="white"/>
</mask>
<g mask="url(#mask0_1_528)">
<path d="M207.421 504.683L332.316 452.675C332.316 452.675 288.977 327.422 284.053 322.191C276.948 314.642 153.19 359.693 153.19 359.693L207.421 504.683Z" fill="#FFC562"/>
<mask id="mask1_1_528" style="mask-type:luminance" maskUnits="userSpaceOnUse" x="153" y="321" width="180" height="184">
<path fill-rule="evenodd" clip-rule="evenodd" d="M207.421 504.683L332.316 452.675C332.316 452.675 288.977 327.421 284.053 322.19C276.948 314.642 153.19 359.693 153.19 359.693L207.421 504.683Z" fill="white"/>
</mask>
<g mask="url(#mask1_1_528)">
<path d="M209.313 591.205C261.729 508.087 226.671 384.961 226.671 384.961L137.608 482.619L209.313 591.205Z" fill="#D89D35"/>
</g>
<path d="M283.426 321.869C252.281 310.707 123.609 312.779 60.7014 312.485C45.1315 312.41 30.5864 319.92 22.0794 332.426L-186.992 639.824L153.19 652.825C153.19 652.825 215.081 522.042 254.086 424.763" fill="#FFC562"/>
<path d="M-514.009 618.154C-500.863 611.85 21.3063 329.812 21.3063 329.812L-39.8695 490.309L-300.374 618.154H-514.009Z" fill="#FF9763"/>
<path d="M41.4015 316.471L-147.541 405.266L-91.6689 533.051L21.3071 475.098" fill="#FFC562"/>
<path d="M643.424 613.786H319.684L459.636 417.528C465.108 409.854 474.176 405.266 483.87 405.266H772.638C776.451 405.266 779.95 407.29 781.729 410.523C783.508 413.757 783.275 417.67 781.122 420.688L643.424 613.786Z" fill="#589BF7"/>
<mask id="mask2_1_528" style="mask-type:luminance" maskUnits="userSpaceOnUse" x="319" y="405" width="464" height="209">
<path fill-rule="evenodd" clip-rule="evenodd" d="M643.424 613.786H319.684L459.636 417.528C465.108 409.854 474.176 405.266 483.87 405.266H772.638C776.45 405.266 779.95 407.29 781.729 410.523C783.508 413.757 783.275 417.67 781.122 420.688L643.424 613.786Z" fill="white"/>
</mask>
<g mask="url(#mask2_1_528)">
<path d="M705.658 392.099C788.69 401.654 694.033 595.949 494.755 610.282C295.477 624.615 602.827 685.442 602.827 685.442L755.477 618.154L833.528 533.051L835.189 481.766L841.831 358.655L742.192 372.988" fill="#2976DF"/>
</g>
<path d="M257.543 240.312L209.313 331.325C209.313 331.325 190.987 417.216 157.709 413.276C124.431 409.336 125.664 312.413 125.664 312.413L174.964 204.852L257.543 240.312Z" fill="#FF9763"/>
<mask id="mask3_1_528" style="mask-type:luminance" maskUnits="userSpaceOnUse" x="125" y="204" width="133" height="210">
<path fill-rule="evenodd" clip-rule="evenodd" d="M257.543 240.312L209.313 331.325C209.313 331.325 190.987 417.216 157.709 413.276C124.431 409.336 125.664 312.413 125.664 312.413L174.964 204.852L257.543 240.312Z" fill="white"/>
</mask>
<g mask="url(#mask3_1_528)">
<path d="M193.635 233.831C170.802 329.812 218.511 326.992 212.631 362.642C209.193 383.487 254.891 227.316 254.891 227.316L174.965 204.852" fill="#E84B23"/>
</g>
<path d="M169.125 218.701V133.197C169.125 128.32 173.247 124.366 178.333 124.366H286.547C291.632 124.366 295.755 128.32 295.755 133.197V227.921C295.755 261.455 267.408 288.641 232.44 288.641V288.641C215.644 288.661 199.531 282.261 187.67 270.856" fill="#FF9763"/>
<mask id="mask4_1_528" style="mask-type:luminance" maskUnits="userSpaceOnUse" x="169" y="124" width="127" height="165">
<path fill-rule="evenodd" clip-rule="evenodd" d="M169.125 218.701V133.197C169.125 128.32 173.247 124.366 178.333 124.366H286.547C291.632 124.366 295.755 128.32 295.755 133.197V227.921C295.755 261.456 267.408 288.641 232.44 288.641V288.641C215.644 288.662 199.531 282.261 187.67 270.856" fill="white"/>
</mask>
<g mask="url(#mask4_1_528)">
<path d="M280.179 217.378V217.378C276.727 217.317 273.98 214.584 274.044 211.273L274.239 201.15C274.302 197.839 277.152 195.205 280.604 195.266V195.266C284.056 195.327 286.803 198.06 286.74 201.371L286.545 211.495C286.515 213.084 285.827 214.597 284.633 215.701C283.439 216.804 281.837 217.408 280.179 217.378Z" fill="#190000"/>
<path d="M233.797 213.186V213.186C232.14 213.157 230.562 212.497 229.411 211.352C228.261 210.207 227.632 208.671 227.662 207.081L227.857 196.957C227.887 195.368 228.575 193.855 229.769 192.751C230.963 191.648 232.565 191.044 234.223 191.074V191.074C237.675 191.135 240.422 193.868 240.358 197.179L240.163 207.302C240.1 210.613 237.25 213.247 233.797 213.186V213.186Z" fill="#190000"/>
<path d="M282.436 181.165C295.123 184.959 291.482 191.564 283.389 189.689C275.297 187.814 274.146 178.686 282.436 181.165Z" fill="#190000"/>
<path d="M234.881 176.483C222.056 179.826 224.484 186.027 232.644 184.439C240.803 182.851 243.26 174.3 234.881 176.483Z" fill="#190000"/>
<path d="M252.727 216.034C252.172 220.053 255.98 218.915 260.405 219.477C264.831 220.039 268.199 222.088 268.754 218.069C269.309 214.051 266.171 210.337 261.745 209.775C257.319 209.213 253.282 212.016 252.727 216.034Z" fill="#E84B23"/>
<path d="M275.145 240.532C266.144 268.971 238.994 253.804 240.563 235.705C240.661 234.769 241.357 233.992 242.307 233.759C246.317 232.729 257.838 230.886 273.839 237.806C274.921 238.276 275.478 239.438 275.145 240.532Z" fill="#C1525F"/>
<mask id="mask5_1_528" style="mask-type:luminance" maskUnits="userSpaceOnUse" x="240" y="232" width="36" height="25">
<path fill-rule="evenodd" clip-rule="evenodd" d="M275.145 240.532C266.144 268.971 238.994 253.804 240.564 235.705C240.661 234.769 241.358 233.992 242.307 233.759C246.317 232.729 257.839 230.886 273.839 237.806C274.921 238.276 275.478 239.438 275.145 240.532Z" fill="white"/>
</mask>
<g mask="url(#mask5_1_528)">
<ellipse cx="13.405" cy="15.42" rx="13.405" ry="15.42" transform="matrix(0.445057 -0.895502 0.909496 0.415712 231.644 259.84)" fill="#993443"/>
<path d="M270.372 235.288C270.101 237.203 269.545 239.781 268.958 240.188C265.34 242.695 249.95 239.412 248.053 237.474C247.525 236.934 248.302 230.747 248.302 230.747L268.148 233.945" fill="#F0F3FC"/>
</g>
</g>
<path d="M302.364 50.7748C294.468 50.7831 286.642 52.2079 279.292 54.9756C261.187 41.0383 236.431 38.091 215.321 47.3595C194.212 56.6281 180.362 76.526 179.534 98.7768C179.49 98.7768 179.456 98.7706 179.417 98.7706C151.623 98.7646 128.598 119.451 126.792 146.049C124.987 172.646 145.021 196.021 172.581 199.471C200.141 202.921 225.76 185.261 231.134 159.11C240.729 160.679 250.579 159.969 259.822 157.043C280.898 175.26 312.009 177.881 336.074 163.467C360.139 149.052 371.332 121.091 363.509 94.9363C355.685 68.7812 330.737 50.7628 302.364 50.7745V50.7748Z" fill="#3A3530"/>
<path d="M176.191 223.406C170.005 220.555 164.748 216.139 160.987 210.633C150.858 196.048 152.856 177.704 165.45 169.66C178.044 161.616 196.465 166.918 206.594 181.502C209.681 185.905 211.741 190.895 212.631 196.132" fill="#FF9763"/>
<path d="M180.112 183.641C176.994 184.387 174.371 186.401 172.93 189.155C171.316 192.358 171.444 196.117 173.273 199.213C173.872 200.195 174.972 200.796 176.158 200.79C177.344 200.784 178.437 200.172 179.025 199.183C179.613 198.195 179.606 196.981 179.007 195.999C178.91 195.782 178.796 195.573 178.666 195.374C178.875 195.866 178.916 195.957 178.788 195.646C178.745 195.536 178.705 195.425 178.667 195.313C178.52 194.864 178.415 194.403 178.352 193.936L178.471 194.783C178.396 194.139 178.399 193.49 178.482 192.847L178.363 193.693C178.418 193.315 178.502 192.941 178.614 192.574C178.667 192.405 178.733 192.24 178.792 192.073C178.912 191.734 178.42 192.834 178.736 192.225C178.904 191.918 179.088 191.62 179.287 191.331C179.594 190.866 178.764 191.906 179.172 191.466C179.283 191.347 179.389 191.223 179.503 191.107C179.734 190.873 179.994 190.674 180.235 190.452C179.57 191.065 179.859 190.722 180.096 190.565C180.234 190.473 180.374 190.387 180.517 190.305C180.805 190.139 181.112 190.018 181.406 189.865C180.52 190.326 181.03 190.021 181.315 189.933C181.501 189.876 181.688 189.828 181.878 189.783C183.635 189.301 184.666 187.56 184.197 185.866C183.679 184.193 181.876 183.211 180.112 183.642L180.112 183.641Z" fill="#190000"/>
<path d="M217.485 140.782C218.237 141.616 218.987 142.452 219.722 143.3C220.124 143.765 220.518 144.235 220.912 144.707C221.276 145.145 220.858 144.628 221.067 144.897C221.222 145.099 221.382 145.298 221.537 145.5C222.215 146.384 222.861 147.292 223.455 148.23C223.775 148.738 224.08 149.255 224.367 149.781C224.486 150 224.602 150.22 224.714 150.442C224.76 150.534 225.128 151.293 224.993 151.002C224.832 150.658 225.148 151.374 225.175 151.442C225.284 151.718 225.388 151.996 225.485 152.277C225.664 152.794 225.819 153.317 225.95 153.848C226.017 154.117 226.078 154.389 226.132 154.661C226.13 154.653 226.301 155.674 226.23 155.161C226.315 155.778 226.356 156.404 226.383 157.026C226.429 159.598 226.284 162.169 225.947 164.72C225.769 166.383 227.601 167.976 229.267 167.904C231.08 167.858 232.539 166.459 232.587 164.72C232.956 162.001 233.093 159.257 232.997 156.516C232.834 153.773 232.18 151.078 231.063 148.548C229.026 143.917 225.575 140.046 222.181 136.279C220.88 135.045 218.786 135.045 217.485 136.279C216.233 137.54 216.233 139.522 217.485 140.782H217.485Z" fill="#190000"/>
<path d="M275.887 52.841C270.52 56.4238 266.174 61.2378 263.244 66.844C262.478 68.3363 262.773 70.3583 264.435 71.2005C265.932 71.9589 268.159 71.6536 268.978 70.0582C269.624 68.7949 270.351 67.5708 271.153 66.3927C271.535 65.8337 271.934 65.286 272.35 64.7494C272.449 64.6011 272.559 64.4603 272.681 64.3283C272.442 64.552 272.34 64.7467 272.637 64.3917C272.866 64.1173 273.1 63.8464 273.338 63.5789C274.267 62.5356 275.261 61.5469 276.314 60.618C276.854 60.1419 277.409 59.6823 277.979 59.2392C278.093 59.1507 278.208 59.0635 278.322 58.9759C278.902 58.531 277.907 59.2677 278.26 59.0226C278.587 58.7957 278.909 58.563 279.239 58.3397C280.654 57.3814 281.459 55.5141 280.43 53.9832C279.524 52.6354 277.404 51.8136 275.887 52.841V52.841Z" fill="#190000"/>
<path d="M295.392 117.693C301.911 119.368 308.638 120.181 315.386 120.107C316.572 120.107 317.668 119.501 318.261 118.515C318.854 117.53 318.854 116.317 318.261 115.331C317.668 114.346 316.572 113.739 315.386 113.739C312.224 113.779 309.063 113.616 305.924 113.249C305.747 113.228 305.569 113.207 305.392 113.185C305.684 113.221 305.623 113.212 305.211 113.157C304.857 113.105 304.503 113.055 304.15 113C303.385 112.881 302.622 112.749 301.861 112.605C300.28 112.307 298.713 111.952 297.157 111.553C296.014 111.25 294.788 111.556 293.943 112.355C293.098 113.154 292.762 114.324 293.061 115.425C293.36 116.526 294.248 117.391 295.392 117.693H295.392Z" fill="#190000"/>
<path d="M257.207 363.392L252.207 366.553C251.473 366.986 250.929 367.663 250.682 368.456C250.544 368.866 250.523 369.305 250.622 369.725C250.641 370.146 250.777 370.555 251.016 370.909C251.46 371.638 252.189 372.169 253.041 372.383C253.893 372.597 254.799 372.478 255.559 372.051L260.558 368.891C261.293 368.458 261.836 367.781 262.084 366.988C262.222 366.578 262.242 366.139 262.143 365.719C262.124 365.297 261.988 364.889 261.749 364.535C261.305 363.805 260.577 363.275 259.725 363.061C258.873 362.847 257.967 362.966 257.207 363.392V363.392Z" fill="#D89D35"/>
<path d="M44.8471 347.157C45.8777 348.568 46.822 350.036 47.6751 351.553C48.0965 352.304 48.4955 353.066 48.872 353.84C49.0392 354.182 49.1971 354.529 49.3601 354.873C49.7522 355.701 49.2151 354.515 49.431 355.026C49.542 355.289 49.6548 355.551 49.7632 355.815C51.0555 359.004 52.0477 362.298 52.7281 365.656C52.8942 366.457 53.0457 367.259 53.1826 368.065C53.2556 368.493 53.3246 368.921 53.3899 369.35C53.4262 369.589 53.4615 369.828 53.4956 370.067C53.414 369.491 53.5068 370.171 53.5327 370.372C53.7547 372.111 53.9201 373.856 54.0406 375.604C54.2838 379.134 54.3435 382.673 54.3012 386.21C54.2534 390.222 54.0722 394.231 53.8671 398.238C53.8795 399.991 55.3588 401.41 57.1874 401.422C59.0049 401.385 60.469 399.981 60.5076 398.238C61.2418 383.891 61.8397 368.74 56.537 355.048C55.0513 351.119 53.05 347.387 50.5814 343.942C49.5891 342.58 47.6298 341.816 46.0387 342.8C44.627 343.673 43.784 345.696 44.8476 347.156L44.8471 347.157Z" fill="#D89D35"/>
</g>
</svg>
