<svg width="434" height="416" viewBox="0 0 434 416" fill="none" xmlns="http://www.w3.org/2000/svg">
<ellipse cx="216.546" cy="207.67" rx="216.546" ry="207.67" fill="#FFC562"/>
<mask id="mask0_3_947" style="mask-type:luminance" maskUnits="userSpaceOnUse" x="0" y="0" width="434" height="416">
<ellipse cx="216.546" cy="207.67" rx="216.546" ry="207.67" fill="white"/>
</mask>
<g mask="url(#mask0_3_947)">
<path d="M353.871 312.01C233.369 205.939 446.739 99.9436 252.558 54.2902C114.388 21.8047 120.045 191.641 66.5275 202.621C13.0066 213.599 -97.2221 273.673 -34.2925 393.148C28.6371 512.624 72.4043 510.405 72.4043 510.405C361.314 823.437 530.008 467.048 353.871 312.01Z" fill="#3A3530"/>
<path d="M-7.77347 15.443C-7.77347 15.443 48.3142 -59.9515 56.7637 -63.648C65.2132 -67.3446 129.185 -109.604 135.013 -110.447C140.841 -111.291 125.117 -128.119 87.2276 -103.723C87.2276 -103.723 55.7445 -116.821 125.218 -168.85C147.153 -185.277 90.8621 -202.326 25.6596 -120.33C-20.3068 -62.5247 -74.2253 -23.8093 -74.2253 -23.8093L-7.77347 15.443Z" fill="#FF9763"/>
<path d="M-13.0565 -95.5484C5.55083 -95.5484 46.1519 -9.1846 46.1519 -9.1846L-44.0911 125.457L99.5133 291.368L14.3316 428.228L-175.669 156.001C-192.475 134.682 -191.598 106.868 -173.472 86.3182L-13.0565 -95.5484Z" fill="#9A7ED9"/>
<mask id="mask1_3_947" style="mask-type:luminance" maskUnits="userSpaceOnUse" x="-188" y="-96" width="288" height="525">
<path fill-rule="evenodd" clip-rule="evenodd" d="M-13.0564 -95.5485C5.55089 -95.5485 46.152 -9.18466 46.152 -9.18466L-44.091 125.456L99.5134 291.368L14.3316 428.227L-175.669 156.001C-192.475 134.682 -191.598 106.868 -173.472 86.3181L-13.0564 -95.5485Z" fill="white"/>
</mask>
<g mask="url(#mask1_3_947)">
<path opacity="0.1" d="M25.0687 325.823C-63.3524 399.723 -112.616 456.732 -112.616 456.732L14.3318 428.228L25.0687 325.823Z" fill="#1E216E"/>
<path d="M42.2728 292.872C-13.3697 351.851 -116.109 241.337 -116.109 241.337L-99.0153 394.431L22.7176 452.167L42.2728 292.872Z" fill="#6F4EB9"/>
</g>
<path d="M30.5523 301.694L-22.243 341.437C-69.056 375.537 -62.0299 443.872 -7.84666 467.078C-6.62172 467.603 -5.39218 468.093 -4.15805 468.549C84.0609 501.086 -57.365 669.653 -44.0909 673.638C175.49 739.56 300.192 644.347 300.192 644.347C300.192 644.347 236.505 468.534 312.85 398.359L328.734 340.468C325.551 322.303 310.407 307.847 290.721 304.183L77.7196 266.189" fill="#9A7ED9"/>
<mask id="mask2_3_947" style="mask-type:luminance" maskUnits="userSpaceOnUse" x="-54" y="266" width="383" height="431">
<path fill-rule="evenodd" clip-rule="evenodd" d="M30.5522 301.694L-22.243 341.436C-69.0561 375.537 -62.03 443.872 -7.84672 467.078C-6.62178 467.603 -5.39224 468.093 -4.15811 468.549C84.0609 501.086 -57.3651 669.653 -44.091 673.638C175.49 739.56 300.192 644.347 300.192 644.347C300.192 644.347 236.505 468.534 312.85 398.359L328.734 340.468C325.551 322.303 310.407 307.847 290.721 304.183L77.7196 266.189" fill="white"/>
</mask>
<g mask="url(#mask2_3_947)">
<path d="M197.184 415.802C370.071 575.106 111.161 738.823 -44.0911 673.638C-199.343 608.453 -162.638 794.462 -162.638 794.462L368.365 787.738L299.172 462.784L281.49 386.588L234.283 389.95" fill="#6F4EB9"/>
<path d="M98.2278 253.134C23.7829 326.645 61.9616 348.474 242.843 296.694V296.694L250.868 277.792" fill="#FF9763"/>
</g>
<path d="M297.914 306.062L489.724 330.518L670.186 241.338C670.186 241.338 695.412 251.822 711.031 329.351L551.021 436.96C532.854 449.065 510.629 454.23 488.699 451.444L197.184 415.802" fill="#9A7ED9"/>
<path d="M94.4186 277.998L190.552 158.373L244.129 206.801L202.596 295.875" fill="#FF9763"/>
<mask id="mask3_3_947" style="mask-type:luminance" maskUnits="userSpaceOnUse" x="94" y="158" width="151" height="138">
<path fill-rule="evenodd" clip-rule="evenodd" d="M94.4188 277.998L190.553 158.373L244.129 206.8L202.597 295.875" fill="white"/>
</mask>
<g mask="url(#mask3_3_947)">
<path d="M192.418 233.494C192.418 233.494 120.607 241.559 86.1922 282.488C60.217 313.38 132.739 148.425 132.739 148.425L192.418 233.494Z" fill="#E84B23"/>
</g>
<path d="M244.554 207.122L252.153 197.877C228.942 158.837 214.022 96.1609 221.727 66.5646C198.945 67.0763 157.76 80.464 124.478 159.856C104.865 206.64 157.946 226.008 192.418 233.494" fill="#FF9763"/>
<mask id="mask4_3_947" style="mask-type:luminance" maskUnits="userSpaceOnUse" x="120" y="66" width="133" height="168">
<path fill-rule="evenodd" clip-rule="evenodd" d="M244.554 207.122L252.153 197.877C228.942 158.837 214.022 96.1609 221.727 66.5646C198.945 67.0763 157.76 80.464 124.478 159.856C104.865 206.64 157.946 226.008 192.418 233.494" fill="white"/>
</mask>
<g mask="url(#mask4_3_947)">
<path d="M166.605 112.725V112.725C170.299 114.074 172.154 118.04 170.747 121.583L166.445 132.418C165.039 135.961 160.903 137.739 157.209 136.39V136.39C153.514 135.041 151.66 131.075 153.066 127.532L157.368 116.698C158.775 113.155 162.91 111.376 166.605 112.725L166.605 112.725Z" fill="#190000"/>
<path d="M217.744 127.27V127.27C221.439 128.619 223.293 132.585 221.887 136.128L217.585 146.963C216.178 150.506 212.043 152.284 208.348 150.935V150.935C204.654 149.586 202.799 145.62 204.206 142.077L208.508 131.243C209.914 127.7 214.05 125.921 217.744 127.27L217.744 127.27Z" fill="#190000"/>
<path d="M170.94 96.9943C155.773 95.8277 156.699 104.337 166.131 105.659C175.563 106.981 180.85 97.7564 170.94 96.9943Z" fill="#190000"/>
<path d="M223.545 111.498C235.68 120.302 230.339 125.895 222.378 120.866C214.418 115.837 215.616 105.747 223.545 111.498Z" fill="#190000"/>
<path d="M186.972 146.205C185.772 150.702 182.233 147.933 177.281 146.718C172.329 145.502 167.839 146.299 169.039 141.803C170.24 137.306 175.227 134.647 180.179 135.862C185.131 137.078 188.172 141.709 186.972 146.205Z" fill="#E84B23"/>
<path d="M152.247 163.048C149.143 196.946 184.741 191.954 191.134 172.084C191.447 171.05 191.053 169.939 190.148 169.302C186.347 166.566 174.928 159.889 154.848 160.688C153.489 160.743 152.38 161.75 152.247 163.048Z" fill="#C1525F"/>
<mask id="mask5_3_947" style="mask-type:luminance" maskUnits="userSpaceOnUse" x="152" y="160" width="40" height="28">
<path fill-rule="evenodd" clip-rule="evenodd" d="M152.247 163.048C149.143 196.946 184.741 191.953 191.134 172.083C191.447 171.05 191.053 169.939 190.148 169.302C186.347 166.565 174.928 159.889 154.848 160.687C153.489 160.743 152.38 161.749 152.247 163.048Z" fill="white"/>
</mask>
<g mask="url(#mask5_3_947)">
<ellipse cx="17.7854" cy="15.2284" rx="17.7854" ry="15.2284" transform="matrix(0.998203 -0.0599185 0.0651292 0.997877 152.369 173.116)" fill="#993443"/>
<path d="M159.652 159.431C159.087 161.577 158.53 164.544 158.973 165.217C161.699 169.361 179.511 172.178 182.389 170.895C183.191 170.538 185.12 163.647 185.12 163.647L162.613 158.916" fill="#F0F3FC"/>
</g>
</g>
<path d="M228.257 221.597C236.251 227.796 247.848 230.53 259.604 228.041C278.413 224.06 290.506 208.218 286.615 192.657C282.724 177.097 264.321 167.71 245.512 171.692C241.002 172.633 236.701 174.333 232.809 176.712" fill="#FF9763"/>
<path d="M255.954 193.915C256.318 193.809 256.69 193.73 257.066 193.679L255.838 193.837C256.48 193.76 257.129 193.761 257.77 193.84L256.542 193.681C257.221 193.773 257.886 193.948 258.52 194.201L257.416 193.754C258.01 194 258.57 194.315 259.084 194.693L258.149 194C258.596 194.339 259.001 194.728 259.354 195.158C260.249 195.947 261.407 196.407 262.622 196.456C263.845 196.447 265.017 195.982 265.889 195.158C266.753 194.325 267.239 193.199 267.242 192.024L267.077 190.846C266.865 190.107 266.455 189.433 265.889 188.891C264.417 187.227 262.466 186.016 260.28 185.409C259.189 185.093 258.057 184.926 256.917 184.915C256.35 184.919 255.784 184.966 255.224 185.053C254.64 185.113 254.063 185.218 253.497 185.368C252.344 185.694 251.36 186.42 250.735 187.405C249.787 188.961 249.916 190.914 251.061 192.343C252.207 193.772 254.141 194.393 255.954 193.914L255.954 193.915Z" fill="#190000"/>
<path d="M264.198 98.0992L267.62 107.965C267.965 109.067 268.721 110.01 269.743 110.613C270.802 111.206 272.062 111.372 273.248 111.074C274.434 110.776 275.447 110.038 276.065 109.023C276.692 107.991 276.86 106.761 276.531 105.609L273.109 95.7431C272.765 94.6403 272.009 93.6977 270.986 93.0948C269.928 92.5014 268.667 92.3355 267.482 92.6336C266.296 92.9318 265.282 93.6696 264.664 94.6846C264.037 95.7167 263.869 96.9472 264.198 98.0992V98.0992Z" fill="#190000"/>
</g>
</svg>
